<svg width="21" height="22" viewBox="0 0 21 22" fill="none" xmlns="http://www.w3.org/2000/svg">
<path d="M17.795 11.4186V15.3206C17.795 16.2943 17.4495 17.1274 16.7585 17.82C16.0656 18.5106 15.2319 18.8558 14.2577 18.8558H4.03726C3.06301 18.8558 2.23041 18.5106 1.53947 17.82C0.84649 17.1274 0.5 16.2943 0.5 15.3206V5.10583C0.5 4.13213 0.84649 3.3 1.53947 2.60945C2.23041 1.91685 3.06301 1.57056 4.03726 1.57056H14.2577C14.7734 1.57056 15.2523 1.67343 15.6946 1.87917C15.8169 1.9362 15.8903 2.02991 15.9147 2.16028C15.9392 2.2988 15.9025 2.41796 15.8047 2.51778L15.2024 3.11972C15.1209 3.2012 15.0271 3.24195 14.9211 3.24195C14.8967 3.24195 14.86 3.2338 14.8111 3.2175C14.6215 3.16861 14.4371 3.14417 14.2577 3.14417H4.03726C3.49714 3.14417 3.03447 3.33565 2.64926 3.71861C2.26404 4.10361 2.07143 4.56602 2.07143 5.10583V15.3206C2.07143 15.8604 2.26404 16.3228 2.64926 16.7078C3.03447 17.0928 3.49714 17.2853 4.03726 17.2853H14.2577C14.7978 17.2853 15.2605 17.0928 15.6457 16.7078C16.0309 16.3228 16.2235 15.8604 16.2235 15.3206V12.2039C16.2235 12.098 16.2602 12.0073 16.3336 11.9319L17.1193 11.1467C17.2008 11.0652 17.2956 11.0244 17.4036 11.0244C17.4525 11.0244 17.5015 11.0367 17.5504 11.0611C17.7134 11.1263 17.795 11.2455 17.795 11.4186ZM20.6321 5.41445L10.6348 15.4061C10.4371 15.6037 10.2038 15.7025 9.93472 15.7025C9.66364 15.7025 9.43027 15.6037 9.23461 15.4061L3.95165 10.1292C3.75599 9.93158 3.65815 9.69833 3.65815 9.42945C3.65815 9.15852 3.75599 8.92528 3.95165 8.72972L5.30296 7.37917C5.49863 7.18158 5.732 7.08278 6.00308 7.08278C6.27416 7.08278 6.50753 7.18158 6.70319 7.37917L9.93472 10.6058L17.8806 2.66445C18.0783 2.46685 18.3116 2.36806 18.5807 2.36806C18.8517 2.36806 19.0851 2.46685 19.2808 2.66445L20.6321 4.015C20.8298 4.21056 20.9286 4.4438 20.9286 4.71472C20.9286 4.98361 20.8298 5.21685 20.6321 5.41445Z" fill="white"/>
</svg>
