<svg width="24" height="18" viewBox="0 0 24 18" fill="none" xmlns="http://www.w3.org/2000/svg">
<path d="M12.1917 10.215L17.8313 8.39753L18.0074 11.5725C18.0334 12.0342 17.7653 12.4625 17.2031 12.8575C16.6392 13.2525 15.8692 13.5659 14.8929 13.7975C13.9184 14.0275 12.8615 14.1425 11.7223 14.1425C10.5815 14.1425 9.52379 14.0275 8.54921 13.7975C7.573 13.5659 6.80376 13.2525 6.24151 12.8575C5.67762 12.4625 5.40871 12.0342 5.43479 11.5725L5.6108 8.39753L11.2505 10.215C11.3939 10.2617 11.5512 10.285 11.7223 10.285C11.8918 10.285 12.0482 10.2617 12.1917 10.215ZM22.8208 4.83253C22.9642 4.88587 23.0359 4.9892 23.0359 5.14253C23.0359 5.29753 22.9642 5.4017 22.8208 5.45503L11.8201 8.99003C11.794 8.9967 11.7614 9.00003 11.7223 9.00003C11.6816 9.00003 11.6481 8.9967 11.6221 8.99003L5.21967 6.92003C4.93772 7.14837 4.70467 7.5217 4.52051 8.04003C4.33798 8.56003 4.22716 9.15753 4.18804 9.83253C4.60037 10.0742 4.80653 10.4392 4.80653 10.9275C4.80653 11.3909 4.61666 11.7492 4.23694 12.0025L4.80653 16.3525C4.81957 16.4459 4.79349 16.53 4.7283 16.605C4.66963 16.6784 4.59059 16.715 4.49117 16.715H2.60639C2.5086 16.715 2.43038 16.6784 2.37171 16.605C2.30489 16.53 2.278 16.4459 2.29104 16.3525L2.86063 12.0025C2.4809 11.7492 2.29104 11.3909 2.29104 10.9275C2.29104 10.4392 2.50453 10.0675 2.93152 9.81253C3.00323 8.42753 3.32347 7.32337 3.89225 6.50003L0.621375 5.45503C0.477958 5.4017 0.40625 5.29753 0.40625 5.14253C0.40625 4.9892 0.477958 4.88587 0.621375 4.83253L11.6221 1.29503C11.6481 1.28837 11.6816 1.28503 11.7223 1.28503C11.7614 1.28503 11.794 1.28837 11.8201 1.29503L22.8208 4.83253Z" fill="#343A40"/>
</svg>
