<svg width="16" height="19" viewBox="0 0 16 19" fill="none" xmlns="http://www.w3.org/2000/svg">
<path d="M12.8024 12.3888C12.8024 12.3155 12.7959 12.2621 12.7829 12.2288C12.7698 12.1955 12.7103 12.1405 12.6042 12.0638C12.4999 11.9871 12.3677 11.903 12.2079 11.8113C12.0464 11.7213 11.8906 11.633 11.7405 11.5463C11.5905 11.4596 11.4412 11.3755 11.2928 11.2938C11.146 11.2138 11.053 11.1638 11.0139 11.1438C10.9812 11.1238 10.9184 11.0805 10.8255 11.0138C10.7341 10.9471 10.6525 10.8971 10.5808 10.8638C10.509 10.8305 10.4397 10.8138 10.3728 10.8138C10.2749 10.8138 10.1559 10.8821 10.0156 11.0188C9.87366 11.1555 9.74398 11.3063 9.62654 11.4713C9.5091 11.6346 9.38268 11.7846 9.24729 11.9213C9.11354 12.0596 9.00425 12.1288 8.91943 12.1288C8.87375 12.1288 8.81993 12.1171 8.75794 12.0938C8.69432 12.0705 8.64294 12.0488 8.60379 12.0288C8.56465 12.0088 8.50919 11.9763 8.43742 11.9313C8.36564 11.888 8.31997 11.8596 8.3004 11.8463C7.65119 11.478 7.09414 11.0546 6.62926 10.5763C6.16274 10.098 5.74598 9.52712 5.37897 8.86378C5.36592 8.84378 5.33819 8.79712 5.29578 8.72378C5.25337 8.65045 5.22237 8.59295 5.2028 8.55128C5.18322 8.51128 5.16202 8.45962 5.13918 8.39628C5.11635 8.33295 5.10493 8.27795 5.10493 8.23128C5.10493 8.14462 5.17181 8.03212 5.30556 7.89378C5.44095 7.75712 5.58857 7.62878 5.74843 7.50878C5.90828 7.38712 6.0559 7.25462 6.19129 7.11128C6.32505 6.96795 6.39192 6.84545 6.39192 6.74378C6.39192 6.67712 6.37561 6.60712 6.34299 6.53378C6.31037 6.46045 6.26143 6.37628 6.19618 6.28128C6.13094 6.18795 6.08853 6.12462 6.06895 6.09128C6.04938 6.05128 5.99963 5.95628 5.9197 5.80628C5.8414 5.65462 5.75984 5.50212 5.67502 5.34878C5.5902 5.19378 5.50293 5.03462 5.41322 4.87128C5.32514 4.70795 5.24358 4.57212 5.16854 4.46378C5.09351 4.35712 5.03968 4.29712 5.00706 4.28378C4.97443 4.27045 4.92142 4.26378 4.84802 4.26378C4.53483 4.26378 4.20452 4.33712 3.85708 4.48378C3.55531 4.62545 3.2927 4.94212 3.06922 5.43378C2.84738 5.92545 2.73647 6.36212 2.73647 6.74378C2.73647 6.85212 2.74462 6.96628 2.76093 7.08628C2.77724 7.20628 2.79356 7.30795 2.80987 7.39128C2.82618 7.47628 2.85554 7.58712 2.89795 7.72378C2.94036 7.86045 2.97299 7.95962 2.99582 8.02128C3.01866 8.08128 3.05944 8.19128 3.11816 8.35128C3.17688 8.51295 3.21277 8.61378 3.22582 8.65378C3.62056 9.75212 4.33012 10.8246 5.3545 11.8713C6.38051 12.9196 7.43098 13.6446 8.50592 14.0463C8.54507 14.0596 8.64376 14.0963 8.80198 14.1563C8.95858 14.218 9.06623 14.2605 9.12495 14.2838C9.18368 14.3071 9.28073 14.3405 9.41612 14.3838C9.54987 14.4271 9.65753 14.4571 9.73909 14.4738C9.82228 14.4905 9.9226 14.5071 10.04 14.5238C10.1575 14.5405 10.2684 14.5488 10.3728 14.5488C10.7463 14.5488 11.1745 14.4355 11.6573 14.2088C12.1385 13.9805 12.4477 13.7121 12.5847 13.4038C12.7298 13.0488 12.8024 12.7105 12.8024 12.3888ZM15.3177 4.58378V14.2288C15.3177 15.0255 15.0412 15.7063 14.4883 16.2713C13.9337 16.838 13.2665 17.1213 12.4868 17.1213H3.04965C2.26995 17.1213 1.60362 16.838 1.05065 16.2713C0.496049 15.7063 0.21875 15.0255 0.21875 14.2288V4.58378C0.21875 3.78712 0.496049 3.10628 1.05065 2.54128C1.60362 1.97462 2.26995 1.69128 3.04965 1.69128H12.4868C13.2665 1.69128 13.9337 1.97462 14.4883 2.54128C15.0412 3.10628 15.3177 3.78712 15.3177 4.58378Z" fill="white"/>
</svg>
