<svg width="15" height="17" viewBox="0 0 15 17" fill="none" xmlns="http://www.w3.org/2000/svg">
<path d="M7.84115 11.8478L11.8962 7.79443C12.0088 7.68184 12.0651 7.54777 12.0651 7.39221C12.0651 7.23814 12.0088 7.10406 11.8962 6.98999L10.9847 6.0811C10.8706 5.96703 10.7364 5.90999 10.5823 5.90999C10.4282 5.90999 10.294 5.96703 10.1799 6.0811L7.43876 8.8211L4.6954 6.0811C4.58276 5.96703 4.44863 5.90999 4.29301 5.90999C4.13887 5.90999 4.00548 5.96703 3.89284 6.0811L2.98135 6.98999C2.86723 7.10406 2.81017 7.23814 2.81017 7.39221C2.81017 7.54777 2.86723 7.68184 2.98135 7.79443L7.03637 11.8478C7.14901 11.9618 7.28314 12.0189 7.43876 12.0189C7.5929 12.0189 7.72703 11.9618 7.84115 11.8478ZM13.379 4.80777C13.9911 5.85814 14.2972 7.00555 14.2972 8.24999C14.2972 9.49443 13.9911 10.6418 13.379 11.6922C12.7654 12.7426 11.9332 13.5744 10.8824 14.1878C9.83013 14.8011 8.68224 15.1078 7.43876 15.1078C6.1938 15.1078 5.04591 14.8011 3.9951 14.1878C2.9443 13.5744 2.1121 12.7426 1.49851 11.6922C0.884919 10.6418 0.578125 9.49443 0.578125 8.24999C0.578125 7.00555 0.884919 5.85814 1.49851 4.80777C2.1121 3.7574 2.9443 2.92555 3.9951 2.31221C5.04591 1.69888 6.1938 1.39221 7.43876 1.39221C8.68224 1.39221 9.83013 1.69888 10.8824 2.31221C11.9332 2.92555 12.7654 3.7574 13.379 4.80777Z" fill="white"/>
</svg>
