<svg width="19" height="19" viewBox="0 0 19 19" fill="none" xmlns="http://www.w3.org/2000/svg">
<path d="M18.1 7.53876V15.5138C18.1 15.9554 17.946 16.3338 17.638 16.6488C17.33 16.9638 16.9601 17.1213 16.5282 17.1213H2.07178C1.63993 17.1213 1.27 16.9638 0.962 16.6488C0.654 16.3338 0.5 15.9554 0.5 15.5138V7.53876C0.788444 7.86709 1.11926 8.15793 1.49244 8.41126C3.86193 10.0596 5.48911 11.2146 6.374 11.8763C6.74719 12.1579 7.04948 12.3779 7.28089 12.5363C7.51393 12.6929 7.82356 12.8529 8.20978 13.0163C8.596 13.1813 8.95615 13.2638 9.29022 13.2638H9.3H9.30978C9.64385 13.2638 10.004 13.1813 10.3902 13.0163C10.7764 12.8529 11.0861 12.6929 11.3191 12.5363C11.5505 12.3779 11.8528 12.1579 12.226 11.8763C13.339 11.0529 14.9695 9.89793 17.1173 8.41126C17.4905 8.15126 17.8181 7.86043 18.1 7.53876ZM18.1 4.58376C18.1 5.11376 17.9395 5.61959 17.6184 6.10126C17.2974 6.58293 16.8981 6.99459 16.4207 7.33626C13.9583 9.08459 12.4264 10.1729 11.8251 10.6013C11.7583 10.6479 11.619 10.7504 11.4071 10.9088C11.1936 11.0654 11.0168 11.1921 10.8767 11.2888C10.7349 11.3871 10.5646 11.4963 10.3658 11.6163C10.1653 11.7363 9.97711 11.8263 9.80111 11.8863C9.62348 11.9479 9.4597 11.9788 9.30978 11.9788H9.3H9.29022C9.1403 11.9788 8.97652 11.9479 8.79889 11.8863C8.62289 11.8263 8.43467 11.7363 8.23422 11.6163C8.03541 11.4963 7.86511 11.3871 7.72333 11.2888C7.58319 11.1921 7.40637 11.0654 7.19289 10.9088C6.98104 10.7504 6.8417 10.6479 6.77489 10.6013C6.18007 10.1729 5.32289 9.56209 4.20333 8.76876C3.08378 7.97543 2.41237 7.49793 2.18911 7.33626C1.78333 7.05626 1.40037 6.66959 1.04022 6.17626C0.680074 5.68459 0.5 5.22793 0.5 4.80626C0.5 4.28293 0.636074 3.84793 0.908222 3.50126C1.17874 3.15293 1.56659 2.97876 2.07178 2.97876H16.5282C16.9536 2.97876 17.3219 3.13543 17.6331 3.44876C17.9444 3.76376 18.1 4.14209 18.1 4.58376Z" fill="white"/>
</svg>
