<svg width="16" height="18" viewBox="0 0 16 18" fill="none" xmlns="http://www.w3.org/2000/svg">
<path d="M2.8309 1.28503H12.2681C13.0478 1.28503 13.7149 1.56837 14.2695 2.13503C14.8225 2.70003 15.099 3.38087 15.099 4.17753V13.8225C15.099 14.6192 14.8225 15.3 14.2695 15.865C13.7149 16.4317 13.0478 16.715 12.2681 16.715H10.4207V10.7375H12.3757L12.6718 8.40753H10.4207V6.92003C10.4207 6.54503 10.4974 6.2642 10.6507 6.07753C10.8057 5.8892 11.1058 5.79503 11.5512 5.79503L12.7501 5.78503V3.70753C12.3374 3.64587 11.7542 3.61503 11.0006 3.61503C10.11 3.61503 9.39719 3.88337 8.86216 4.42003C8.32877 4.95503 8.06207 5.7117 8.06207 6.69003V8.40753H6.09488V10.7375H8.06207V16.715H2.8309C2.0512 16.715 1.38487 16.4317 0.831898 15.865C0.277299 15.3 0 14.6192 0 13.8225V4.17753C0 3.38087 0.277299 2.70003 0.831898 2.13503C1.38487 1.56837 2.0512 1.28503 2.8309 1.28503Z" fill="white"/>
</svg>
