<svg width="16" height="18" viewBox="0 0 16 18" fill="none" xmlns="http://www.w3.org/2000/svg">
<path d="M9.51699 10.8175C10.008 10.3159 10.2535 9.71003 10.2535 9.00003C10.2535 8.29003 10.008 7.6842 9.51699 7.18253C9.02601 6.6792 8.43308 6.42753 7.7382 6.42753C7.04332 6.42753 6.44957 6.6792 5.95696 7.18253C5.46598 7.6842 5.22048 8.29003 5.22048 9.00003C5.22048 9.71003 5.46598 10.3159 5.95696 10.8175C6.44957 11.3209 7.04332 11.5725 7.7382 11.5725C8.43308 11.5725 9.02601 11.3209 9.51699 10.8175ZM10.481 6.19753C11.2346 6.96753 11.6114 7.9017 11.6114 9.00003C11.6114 10.0984 11.2346 11.0325 10.481 11.8025C9.72742 12.5725 8.81314 12.9575 7.7382 12.9575C6.66326 12.9575 5.74898 12.5725 4.99538 11.8025C4.24178 11.0325 3.86498 10.0984 3.86498 9.00003C3.86498 7.9017 4.24178 6.96753 4.99538 6.19753C5.74898 5.42753 6.66326 5.04253 7.7382 5.04253C8.81314 5.04253 9.72742 5.42753 10.481 6.19753ZM12.4066 4.23003C12.5844 4.41003 12.6733 4.62753 12.6733 4.88253C12.6733 5.13587 12.5844 5.35337 12.4066 5.53503C12.2304 5.71503 12.0176 5.80503 11.768 5.80503C11.5184 5.80503 11.3056 5.71503 11.1294 5.53503C10.9516 5.35337 10.8627 5.13587 10.8627 4.88253C10.8627 4.62753 10.9516 4.41003 11.1294 4.23003C11.3056 4.04837 11.5184 3.95753 11.768 3.95753C12.0176 3.95753 12.2304 4.04837 12.4066 4.23003ZM8.48935 2.66753C8.03426 2.67087 7.78387 2.67253 7.7382 2.67253C7.69253 2.67253 7.44133 2.67087 6.9846 2.66753C6.5295 2.6642 6.18369 2.6642 5.94717 2.66753C5.71228 2.67087 5.39665 2.68087 5.00028 2.69753C4.6039 2.7142 4.26625 2.74753 3.98732 2.79753C3.70839 2.84753 3.47431 2.9092 3.2851 2.98253C2.95723 3.11753 2.66851 3.3117 2.41894 3.56503C2.16938 3.82003 1.97934 4.11503 1.84885 4.45003C1.77708 4.64337 1.71672 4.88253 1.66779 5.16753C1.61885 5.45253 1.58623 5.79753 1.56992 6.20253C1.55198 6.60753 1.54137 6.93087 1.53811 7.17253C1.53485 7.41253 1.53485 7.76587 1.53811 8.23253C1.54137 8.69753 1.543 8.95337 1.543 9.00003C1.543 9.0467 1.54137 9.30253 1.53811 9.76753C1.53485 10.2342 1.53485 10.5875 1.53811 10.8275C1.54137 11.0692 1.55198 11.3925 1.56992 11.7975C1.58623 12.2025 1.61885 12.5475 1.66779 12.8325C1.71672 13.1175 1.77708 13.3567 1.84885 13.55C1.97934 13.885 2.16938 14.18 2.41894 14.435C2.66851 14.6884 2.95723 14.8825 3.2851 15.0175C3.47431 15.0909 3.70839 15.1525 3.98732 15.2025C4.26625 15.2525 4.6039 15.2859 5.00028 15.3025C5.39665 15.3192 5.71228 15.3292 5.94717 15.3325C6.18369 15.3359 6.5295 15.3359 6.9846 15.3325C7.44133 15.3292 7.69253 15.3275 7.7382 15.3275C7.78387 15.3275 8.03426 15.3292 8.48935 15.3325C8.94445 15.3359 9.29026 15.3359 9.52678 15.3325C9.7633 15.3292 10.0797 15.3192 10.4761 15.3025C10.8725 15.2859 11.2102 15.2525 11.4891 15.2025C11.7664 15.1525 12.0005 15.0909 12.1913 15.0175C12.5192 14.8825 12.8071 14.6884 13.055 14.435C13.3046 14.18 13.4946 13.885 13.6251 13.55C13.6985 13.3567 13.7597 13.1175 13.8086 12.8325C13.8575 12.5475 13.8902 12.2025 13.9065 11.7975C13.9228 11.3925 13.9326 11.0692 13.9358 10.8275C13.9391 10.5875 13.9391 10.2342 13.9358 9.76753C13.9326 9.30253 13.9309 9.0467 13.9309 9.00003C13.9309 8.95337 13.9326 8.69753 13.9358 8.23253C13.9391 7.76587 13.9391 7.41253 13.9358 7.17253C13.9326 6.93087 13.9228 6.60753 13.9065 6.20253C13.8902 5.79753 13.8575 5.45253 13.8086 5.16753C13.7597 4.88253 13.6985 4.64337 13.6251 4.45003C13.4946 4.11503 13.3046 3.82003 13.055 3.56503C12.8071 3.3117 12.5192 3.11753 12.1913 2.98253C12.0005 2.9092 11.7664 2.84753 11.4891 2.79753C11.2102 2.74753 10.8725 2.7142 10.4761 2.69753C10.0797 2.68087 9.7633 2.67087 9.52678 2.66753C9.29026 2.6642 8.94445 2.6642 8.48935 2.66753ZM15.2375 5.81503C15.2701 6.40503 15.2865 7.4667 15.2865 9.00003C15.2865 10.5334 15.2701 11.595 15.2375 12.185C15.1723 13.5767 14.7661 14.6542 14.019 15.4175C13.272 16.1809 12.2166 16.5967 10.8529 16.665C10.2771 16.6984 9.23888 16.715 7.7382 16.715C6.23752 16.715 5.19846 16.6984 4.62103 16.665C3.25737 16.5967 2.202 16.1809 1.45492 15.4175C0.707844 14.6542 0.301682 13.5767 0.236435 12.185C0.203812 11.595 0.1875 10.5334 0.1875 9.00003C0.1875 7.4667 0.203812 6.40503 0.236435 5.81503C0.301682 4.42337 0.707844 3.34587 1.45492 2.58253C2.202 1.8192 3.25737 1.40337 4.62103 1.33503C5.19846 1.3017 6.23752 1.28503 7.7382 1.28503C9.23888 1.28503 10.2771 1.3017 10.8529 1.33503C12.2166 1.40337 13.272 1.8192 14.019 2.58253C14.7661 3.34587 15.1723 4.42337 15.2375 5.81503Z" fill="white"/>
</svg>
