<svg width="18" height="18" viewBox="0 0 18 18" fill="none" xmlns="http://www.w3.org/2000/svg">
<path d="M11.9584 13.1275L13.403 6.1675C13.4617 5.8725 13.4275 5.66167 13.3004 5.535C13.1716 5.40833 13.003 5.385 12.7944 5.465L4.30725 8.81C4.11821 8.88333 3.98947 8.96667 3.92103 9.06C3.85095 9.15333 3.84281 9.2425 3.89658 9.3275C3.94873 9.41083 4.05303 9.47583 4.20947 9.5225L6.38014 10.215L11.4181 6.97C11.5567 6.87667 11.6618 6.85667 11.7335 6.91C11.7791 6.94333 11.7661 6.99417 11.6944 7.0625L7.61703 10.8275L7.46058 13.1175C7.61051 13.1175 7.75799 13.0442 7.90303 12.8975L8.96392 11.8525L11.1639 13.51C11.5827 13.7517 11.8475 13.6242 11.9584 13.1275ZM17.1846 5.505C17.649 6.61667 17.8813 7.78167 17.8813 9C17.8813 10.2183 17.649 11.3833 17.1846 12.495C16.7185 13.6067 16.0927 14.5642 15.3073 15.3675C14.5218 16.1708 13.5855 16.8108 12.4986 17.2875C11.4116 17.7625 10.2725 18 9.08125 18C7.88999 18 6.75088 17.7625 5.66392 17.2875C4.57695 16.8108 3.64073 16.1708 2.85525 15.3675C2.06977 14.5642 1.44399 13.6067 0.977917 12.495C0.513472 11.3833 0.28125 10.2183 0.28125 9C0.28125 7.78167 0.513472 6.61667 0.977917 5.505C1.44399 4.39333 2.06977 3.43583 2.85525 2.6325C3.64073 1.82917 4.57695 1.18917 5.66392 0.7125C6.75088 0.2375 7.88999 0 9.08125 0C10.2725 0 11.4116 0.2375 12.4986 0.7125C13.5855 1.18917 14.5218 1.82917 15.3073 2.6325C16.0927 3.43583 16.7185 4.39333 17.1846 5.505Z" fill="white"/>
</svg>
