<svg width="15" height="17" viewBox="0 0 15 17" fill="none" xmlns="http://www.w3.org/2000/svg">
<path d="M7.03776 4.65248L2.98274 8.70581C2.8701 8.8184 2.81378 8.95248 2.81378 9.10803C2.81378 9.26211 2.8701 9.39618 2.98274 9.51025L3.89423 10.4191C4.00835 10.5332 4.14248 10.5903 4.29662 10.5903C4.45075 10.5903 4.58488 10.5332 4.69901 10.4191L7.44015 7.67914L10.1835 10.4191C10.2962 10.5332 10.4303 10.5903 10.5859 10.5903C10.74 10.5903 10.8734 10.5332 10.9861 10.4191L11.8976 9.51025C12.0117 9.39618 12.0687 9.26211 12.0687 9.10803C12.0687 8.95248 12.0117 8.8184 11.8976 8.70581L7.84254 4.65248C7.7299 4.5384 7.59577 4.48137 7.44015 4.48137C7.28601 4.48137 7.15188 4.5384 7.03776 4.65248ZM1.49989 11.6925C0.887789 10.6421 0.581735 9.4947 0.581735 8.25025C0.581735 7.00581 0.887789 5.8584 1.49989 4.80803C2.11348 3.75766 2.94568 2.92581 3.99649 2.31248C5.04878 1.69914 6.19667 1.39248 7.44015 1.39248C8.68511 1.39248 9.833 1.69914 10.8838 2.31248C11.9346 2.92581 12.7668 3.75766 13.3804 4.80803C13.994 5.8584 14.3008 7.00581 14.3008 8.25025C14.3008 9.4947 13.994 10.6421 13.3804 11.6925C12.7668 12.7428 11.9346 13.5747 10.8838 14.188C9.833 14.8014 8.68511 15.108 7.44015 15.108C6.19667 15.108 5.04878 14.8014 3.99649 14.188C2.94568 13.5747 2.11348 12.7428 1.49989 11.6925Z" fill="white"/>
</svg>
