<svg width="28" height="28" viewBox="0 0 28 28" fill="none" xmlns="http://www.w3.org/2000/svg">
<g clip-path="url(#clip0_1851_731)">
<path d="M23.6591 4.42302C21.3635 2.12943 18.3127 0.748048 15.0746 0.535956C11.8364 0.323864 8.63152 1.29552 6.05632 3.27008C3.48112 5.24463 1.71106 8.08759 1.07556 11.2698C0.440063 14.4521 0.982421 17.7568 2.6017 20.569L0.703125 27.4999L7.79684 25.6373C9.75824 26.7071 11.9569 27.2671 14.1911 27.2659H14.1971C17.7574 27.2654 21.1734 25.8594 23.7026 23.3537C26.2318 20.8479 27.6695 17.4451 27.7031 13.885C27.684 12.1195 27.317 10.375 26.6231 8.75143C25.9292 7.12784 24.922 5.657 23.6591 4.42302ZM14.1971 25.0107C12.204 25.0124 10.2473 24.4774 8.53227 23.4619L8.12855 23.221L3.9217 24.3242L5.04284 20.2202L4.77798 19.7985C3.88806 18.3334 3.34816 16.6827 3.20028 14.9749C3.05239 13.2671 3.30052 11.5483 3.92535 9.95201C4.55017 8.35576 5.53486 6.92519 6.80278 5.7716C8.07071 4.61801 9.5877 3.7725 11.2357 3.30085C12.8837 2.82921 14.6184 2.74415 16.3046 3.05228C17.9909 3.36042 19.5833 4.05345 20.958 5.07746C22.3327 6.10146 23.4527 7.42883 24.2307 8.95628C25.0087 10.4837 25.4238 12.1701 25.4437 13.8842C25.4123 16.8459 24.2136 19.6757 22.108 21.7589C20.0024 23.842 17.1599 25.0103 14.198 25.0099L14.1971 25.0107ZM20.2966 16.6819C19.9648 16.5105 18.32 15.7056 18.0123 15.5967C17.7046 15.4879 17.4817 15.4253 17.2588 15.7682C17.036 16.111 16.3974 16.8533 16.1986 17.0822C15.9997 17.311 15.8068 17.3393 15.4751 17.1679C13.5494 16.399 11.9439 14.9956 10.9246 13.1899C10.5817 12.5993 11.2674 12.6413 11.9068 11.3642C11.9504 11.2718 11.9704 11.1701 11.9652 11.0681C11.96 10.9661 11.9296 10.867 11.8768 10.7796C11.7911 10.6082 11.1234 8.96588 10.8483 8.29388C10.5774 7.64331 10.2997 7.73331 10.0948 7.72131C9.88998 7.70931 9.67912 7.70931 9.45627 7.70931C9.28702 7.71394 9.12052 7.75321 8.96705 7.82472C8.81358 7.89622 8.6764 7.99842 8.56398 8.12502C8.1854 8.48302 7.88542 8.91585 7.68311 9.39602C7.48081 9.87619 7.38059 10.3932 7.38884 10.9142C7.49914 12.1747 7.9722 13.3762 8.75084 14.3736C8.92227 14.5965 11.1071 17.9736 14.4646 19.4239C16.586 20.3402 17.4174 20.4182 18.4786 20.2613C18.944 20.1667 19.3847 19.9765 19.7728 19.7027C20.1608 19.4288 20.4878 19.0773 20.7328 18.6705C20.951 18.1703 21.018 17.6173 20.9257 17.0796C20.8503 16.9287 20.6274 16.8447 20.2966 16.6819Z" fill="white"/>
</g>
<defs>
<clipPath id="clip0_1851_731">
<rect width="27" height="27" fill="white" transform="translate(0.703125 0.5)"/>
</clipPath>
</defs>
</svg>
