<svg width="16" height="18" viewBox="0 0 16 18" fill="none" xmlns="http://www.w3.org/2000/svg">
<path d="M9.12718 13.0875V11.51C9.12718 11.1767 9.03258 11.01 8.84336 11.01C8.73244 11.01 8.62397 11.0634 8.51794 11.17V13.42C8.62397 13.5267 8.73244 13.58 8.84336 13.58C9.03258 13.58 9.12718 13.4159 9.12718 13.0875ZM10.9378 11.52V11.8625H11.5862V11.52C11.5862 11.18 11.4777 11.01 11.2608 11.01C11.0454 11.01 10.9378 11.18 10.9378 11.52ZM3.04209 9.19003H5.32247V9.89503H4.53707V14.1425H3.81038V9.89503H3.04209V9.19003ZM6.64128 10.4575H7.29946V14.1425H6.64128V13.74C6.38518 14.0417 6.13643 14.1925 5.89502 14.1925C5.67807 14.1925 5.54024 14.0992 5.48151 13.9125C5.44237 13.7975 5.42279 13.6167 5.42279 13.37V10.4575H6.07118V13.1675C6.07118 13.3292 6.07445 13.4167 6.08097 13.43C6.08749 13.53 6.13643 13.58 6.22778 13.58C6.35827 13.58 6.4961 13.4767 6.64128 13.27V10.4575ZM9.77802 11.5725V13.0375C9.77802 13.3859 9.75437 13.63 9.70707 13.77C9.62877 14.0517 9.45587 14.1925 9.18835 14.1925C8.95836 14.1925 8.73489 14.055 8.51794 13.78V14.1425H7.85976V9.19003H8.51794V10.8075C8.72836 10.5409 8.95183 10.4075 9.18835 10.4075C9.45587 10.4075 9.62877 10.5475 9.70707 10.8275C9.75437 10.9692 9.77802 11.2175 9.77802 11.5725ZM11.5764 12.8675H12.2444V12.9575C12.2444 13.1525 12.2378 13.2967 12.2248 13.39C12.2052 13.5367 12.1563 13.6709 12.078 13.7925C11.9002 14.0592 11.6376 14.1925 11.2901 14.1925C10.9492 14.1925 10.6841 14.0659 10.4949 13.8125C10.3579 13.6309 10.2894 13.3425 10.2894 12.9475V11.6525C10.2894 11.2575 10.3546 10.9692 10.4851 10.7875C10.6744 10.5342 10.9362 10.4075 11.2705 10.4075C11.6049 10.4075 11.861 10.5342 12.0388 10.7875C12.1758 10.9825 12.2444 11.2709 12.2444 11.6525V12.415H10.9378V13.0675C10.9378 13.4092 11.0487 13.58 11.2705 13.58C11.4288 13.58 11.5275 13.4934 11.5666 13.32C11.5666 13.3134 11.5682 13.29 11.5715 13.25C11.5748 13.2084 11.5764 13.1525 11.5764 13.0825C11.5764 13.0125 11.5764 12.9409 11.5764 12.8675ZM7.81083 4.59003V6.15753C7.81083 6.4992 7.70562 6.67003 7.4952 6.67003C7.28641 6.67003 7.18201 6.4992 7.18201 6.15753V4.59003C7.18201 4.2417 7.28641 4.06753 7.4952 4.06753C7.70562 4.06753 7.81083 4.2417 7.81083 4.59003ZM13.0518 11.7525C13.0518 10.5675 12.989 9.6967 12.8634 9.14003C12.7981 8.84503 12.657 8.5992 12.4401 8.40253C12.2248 8.2042 11.976 8.08837 11.6938 8.05503C10.8032 7.95503 9.45342 7.90503 7.64445 7.90503C5.842 7.90503 4.49465 7.95503 3.6024 8.05503C3.31532 8.08837 3.06493 8.2042 2.85125 8.40253C2.63756 8.5992 2.4981 8.84503 2.43285 9.14003C2.30236 9.72337 2.23711 10.5942 2.23711 11.7525C2.23711 12.9309 2.30236 13.8017 2.43285 14.365C2.4981 14.6517 2.63756 14.8959 2.85125 15.0975C3.06493 15.2975 3.31205 15.4142 3.59262 15.4475C4.49139 15.5492 5.842 15.6 7.64445 15.6C9.4469 15.6 10.7967 15.5492 11.6938 15.4475C11.976 15.4142 12.2232 15.2975 12.4352 15.0975C12.6489 14.8959 12.7884 14.6517 12.8536 14.365C12.9857 13.8017 13.0518 12.9309 13.0518 11.7525ZM5.62832 7.23253V5.21253L6.51405 2.24003H5.77513L5.27354 4.19753L4.75238 2.24003H3.98654C4.03222 2.39337 4.10725 2.6242 4.21165 2.93253C4.31767 3.24087 4.39678 3.4717 4.44898 3.62503C4.67898 4.31503 4.82986 4.8442 4.90163 5.21253V7.23253H5.62832ZM8.46901 6.02753V4.72003C8.46901 4.3317 8.4005 4.04087 8.26348 3.84753C8.07263 3.59253 7.81654 3.46503 7.4952 3.46503C7.16244 3.46503 6.90716 3.59253 6.72936 3.84753C6.59234 4.04087 6.52383 4.3317 6.52383 4.72003V6.02753C6.52383 6.41587 6.59234 6.7067 6.72936 6.90003C6.90716 7.15503 7.16244 7.28253 7.4952 7.28253C7.81654 7.28253 8.07263 7.15503 8.26348 6.90003C8.4005 6.72003 8.46901 6.4292 8.46901 6.02753ZM10.2478 6.83003V7.23253H10.9084V3.51503H10.2478V6.35753C10.1043 6.56587 9.96724 6.67003 9.83675 6.67003C9.73724 6.67003 9.68423 6.6167 9.67771 6.51003C9.67118 6.4967 9.66792 6.4092 9.66792 6.24753V3.51503H9.00974V6.45753C9.00974 6.70587 9.02931 6.89003 9.06846 7.01003C9.14023 7.1917 9.28133 7.28253 9.49175 7.28253C9.72827 7.28253 9.98029 7.1317 10.2478 6.83003ZM15.1927 4.17753V13.8225C15.1927 14.6192 14.9162 15.3 14.3633 15.865C13.8087 16.4317 13.1415 16.715 12.3618 16.715H2.92465C2.14495 16.715 1.47862 16.4317 0.925648 15.865C0.371049 15.3 0.09375 14.6192 0.09375 13.8225V4.17753C0.09375 3.38087 0.371049 2.70003 0.925648 2.13503C1.47862 1.56837 2.14495 1.28503 2.92465 1.28503H12.3618C13.1415 1.28503 13.8087 1.56837 14.3633 2.13503C14.9162 2.70003 15.1927 3.38087 15.1927 4.17753Z" fill="white"/>
</svg>
