<svg width="39" height="71" viewBox="0 0 39 71" fill="none" xmlns="http://www.w3.org/2000/svg">
<g clip-path="url(#clip0_1875_8530)">
<path d="M35.5156 1.54688H3.51562C2.41106 1.54688 1.51562 2.44231 1.51562 3.54688V67.5469C1.51562 68.6514 2.41106 69.5469 3.51562 69.5469H35.5156C36.6202 69.5469 37.5156 68.6514 37.5156 67.5469V3.54688C37.5156 2.44231 36.6202 1.54688 35.5156 1.54688Z" stroke="#393939" stroke-width="2"/>
<path d="M12.5156 1.82373H26.1826V4.31373C26.1826 4.49938 26.1089 4.67743 25.9776 4.80871C25.8463 4.93998 25.6683 5.01373 25.4826 5.01373H13.2156C13.03 5.01373 12.8519 4.93998 12.7207 4.80871C12.5894 4.67743 12.5156 4.49938 12.5156 4.31373V1.82373Z" fill="#393939"/>
</g>
<defs>
<clipPath id="clip0_1875_8530">
<rect width="38" height="70" fill="white" transform="translate(0.515625 0.546875)"/>
</clipPath>
</defs>
</svg>
