<svg width="145" height="43" viewBox="0 0 145 43" fill="none" xmlns="http://www.w3.org/2000/svg">
<path d="M1 6.34375C1 3.30618 3.46243 0.84375 6.5 0.84375H138.5C141.538 0.84375 144 3.30618 144 6.34375V36.3438C144 39.3813 141.538 41.8438 138.5 41.8438H6.5C3.46244 41.8438 1 39.3813 1 36.3438V6.34375Z" fill="black"/>
<path d="M1 6.34375C1 3.30618 3.46243 0.84375 6.5 0.84375H138.5C141.538 0.84375 144 3.30618 144 6.34375V36.3438C144 39.3813 141.538 41.8438 138.5 41.8438H6.5C3.46244 41.8438 1 39.3813 1 36.3438V6.34375Z" stroke="white"/>
<path d="M48.4688 16.0938H46.3366V9.18466H48.5632C49.2334 9.18466 49.8069 9.32298 50.2837 9.59961C50.7605 9.87399 51.126 10.2687 51.3801 10.7837C51.6343 11.2965 51.7614 11.9105 51.7614 12.6257C51.7614 13.3454 51.6332 13.965 51.3768 14.4846C51.1204 15.0018 50.747 15.3999 50.2567 15.6788C49.7665 15.9554 49.1705 16.0938 48.4688 16.0938ZM47.1733 15.3516H48.4148C48.986 15.3516 49.4595 15.2414 49.835 15.021C50.2106 14.8005 50.4906 14.4868 50.6751 14.0797C50.8595 13.6726 50.9517 13.188 50.9517 12.6257C50.9517 12.0679 50.8606 11.5878 50.6784 11.1852C50.4963 10.7804 50.2241 10.47 49.862 10.2541C49.4999 10.0359 49.049 9.92685 48.5092 9.92685H47.1733V15.3516ZM55.1619 16.2017C54.6941 16.2017 54.2837 16.0904 53.9306 15.8677C53.5797 15.6451 53.3053 15.3336 53.1074 14.9332C52.9118 14.5329 52.8139 14.0651 52.8139 13.5298C52.8139 12.9901 52.9118 12.5189 53.1074 12.1163C53.3053 11.7137 53.5797 11.4011 53.9306 11.1784C54.2837 10.9558 54.6941 10.8445 55.1619 10.8445C55.6297 10.8445 56.0391 10.9558 56.3899 11.1784C56.743 11.4011 57.0174 11.7137 57.2131 12.1163C57.411 12.5189 57.5099 12.9901 57.5099 13.5298C57.5099 14.0651 57.411 14.5329 57.2131 14.9332C57.0174 15.3336 56.743 15.6451 56.3899 15.8677C56.0391 16.0904 55.6297 16.2017 55.1619 16.2017ZM55.1619 15.4865C55.5173 15.4865 55.8097 15.3954 56.0391 15.2132C56.2685 15.0311 56.4383 14.7915 56.5485 14.4947C56.6587 14.1978 56.7138 13.8762 56.7138 13.5298C56.7138 13.1835 56.6587 12.8607 56.5485 12.5616C56.4383 12.2625 56.2685 12.0207 56.0391 11.8363C55.8097 11.6519 55.5173 11.5597 55.1619 11.5597C54.8066 11.5597 54.5142 11.6519 54.2848 11.8363C54.0554 12.0207 53.8856 12.2625 53.7754 12.5616C53.6652 12.8607 53.6101 13.1835 53.6101 13.5298C53.6101 13.8762 53.6652 14.1978 53.7754 14.4947C53.8856 14.7915 54.0554 15.0311 54.2848 15.2132C54.5142 15.3954 54.8066 15.4865 55.1619 15.4865ZM59.723 16.0938L58.1442 10.9119H58.9808L60.1009 14.8793H60.1548L61.2614 10.9119H62.1115L63.2045 14.8658H63.2585L64.3786 10.9119H65.2152L63.6364 16.0938H62.8537L61.7202 12.1129H61.6392L60.5057 16.0938H59.723ZM67.0639 12.9766V16.0938H66.2678V10.9119H67.0369V11.7216H67.1044C67.2259 11.4585 67.4103 11.247 67.6577 11.0874C67.9051 10.9254 68.2244 10.8445 68.6158 10.8445C68.9666 10.8445 69.2736 10.9164 69.5368 11.0604C69.7999 11.2021 70.0046 11.418 70.1507 11.7081C70.2969 11.996 70.37 12.3603 70.37 12.8011V16.0938H69.5739V12.8551C69.5739 12.448 69.4682 12.1309 69.2567 11.9038C69.0453 11.6744 68.7552 11.5597 68.3864 11.5597C68.1322 11.5597 67.9051 11.6148 67.7049 11.725C67.507 11.8352 67.3507 11.996 67.236 12.2074C67.1213 12.4188 67.0639 12.6752 67.0639 12.9766ZM72.621 9.18466V16.0938H71.8249V9.18466H72.621ZM76.1844 16.2017C75.7166 16.2017 75.3061 16.0904 74.953 15.8677C74.6022 15.6451 74.3278 15.3336 74.1299 14.9332C73.9342 14.5329 73.8364 14.0651 73.8364 13.5298C73.8364 12.9901 73.9342 12.5189 74.1299 12.1163C74.3278 11.7137 74.6022 11.4011 74.953 11.1784C75.3061 10.9558 75.7166 10.8445 76.1844 10.8445C76.6522 10.8445 77.0615 10.9558 77.4124 11.1784C77.7655 11.4011 78.0399 11.7137 78.2355 12.1163C78.4334 12.5189 78.5324 12.9901 78.5324 13.5298C78.5324 14.0651 78.4334 14.5329 78.2355 14.9332C78.0399 15.3336 77.7655 15.6451 77.4124 15.8677C77.0615 16.0904 76.6522 16.2017 76.1844 16.2017ZM76.1844 15.4865C76.5397 15.4865 76.8321 15.3954 77.0615 15.2132C77.2909 15.0311 77.4607 14.7915 77.5709 14.4947C77.6811 14.1978 77.7362 13.8762 77.7362 13.5298C77.7362 13.1835 77.6811 12.8607 77.5709 12.5616C77.4607 12.2625 77.2909 12.0207 77.0615 11.8363C76.8321 11.6519 76.5397 11.5597 76.1844 11.5597C75.829 11.5597 75.5367 11.6519 75.3073 11.8363C75.0779 12.0207 74.9081 12.2625 74.7979 12.5616C74.6876 12.8607 74.6325 13.1835 74.6325 13.5298C74.6325 13.8762 74.6876 14.1978 74.7979 14.4947C74.9081 14.7915 75.0779 15.0311 75.3073 15.2132C75.5367 15.3954 75.829 15.4865 76.1844 15.4865ZM81.2726 16.2152C80.9442 16.2152 80.6462 16.1533 80.3786 16.0297C80.111 15.9037 79.8984 15.7227 79.741 15.4865C79.5836 15.2481 79.5048 14.9602 79.5048 14.6229C79.5048 14.326 79.5633 14.0853 79.6803 13.9009C79.7972 13.7143 79.9535 13.5681 80.1492 13.4624C80.3449 13.3567 80.5608 13.2779 80.7969 13.2262C81.0353 13.1722 81.2748 13.1295 81.5155 13.098C81.8304 13.0575 82.0856 13.0272 82.2813 13.0069C82.4792 12.9844 82.6232 12.9473 82.7131 12.8956C82.8053 12.8439 82.8514 12.7539 82.8514 12.6257V12.5987C82.8514 12.2659 82.7603 12.0072 82.5782 11.8228C82.3982 11.6384 82.125 11.5462 81.7584 11.5462C81.3783 11.5462 81.0803 11.6294 80.8644 11.7958C80.6485 11.9622 80.4967 12.1399 80.409 12.3288L79.6533 12.0589C79.7882 11.7441 79.9681 11.4989 80.193 11.3235C80.4202 11.1458 80.6676 11.0221 80.9352 10.9524C81.2051 10.8804 81.4705 10.8445 81.7314 10.8445C81.8978 10.8445 82.089 10.8647 82.3049 10.9052C82.5231 10.9434 82.7334 11.0233 82.9358 11.1447C83.1404 11.2662 83.3102 11.4495 83.4452 11.6946C83.5801 11.9397 83.6476 12.2681 83.6476 12.6797V16.0938H82.8514V15.392H82.8109C82.757 15.5045 82.667 15.6248 82.5411 15.753C82.4151 15.8812 82.2476 15.9903 82.0384 16.0803C81.8292 16.1702 81.574 16.2152 81.2726 16.2152ZM81.394 15.5C81.7089 15.5 81.9743 15.4382 82.1902 15.3145C82.4084 15.1908 82.5725 15.0311 82.6828 14.8354C82.7952 14.6397 82.8514 14.4339 82.8514 14.218V13.4893C82.8177 13.5298 82.7435 13.5669 82.6288 13.6007C82.5163 13.6322 82.3859 13.6603 82.2374 13.685C82.0912 13.7075 81.9484 13.7277 81.809 13.7457C81.6718 13.7615 81.5605 13.775 81.475 13.7862C81.2681 13.8132 81.0747 13.8571 80.8948 13.9178C80.7171 13.9763 80.5731 14.0651 80.4629 14.1843C80.355 14.3013 80.301 14.4609 80.301 14.6634C80.301 14.94 80.4033 15.1491 80.608 15.2908C80.8149 15.4303 81.0769 15.5 81.394 15.5ZM87.0574 16.2017C86.6256 16.2017 86.2444 16.0926 85.9138 15.8745C85.5832 15.6541 85.3245 15.3437 85.1379 14.9434C84.9512 14.5408 84.8579 14.0651 84.8579 13.5163C84.8579 12.9721 84.9512 12.4998 85.1379 12.0994C85.3245 11.6991 85.5843 11.3899 85.9172 11.1717C86.25 10.9535 86.6346 10.8445 87.0709 10.8445C87.4083 10.8445 87.6748 10.9007 87.8705 11.0131C88.0684 11.1233 88.2191 11.2493 88.3225 11.391C88.4282 11.5304 88.5103 11.6451 88.5688 11.7351H88.6363V9.18466H89.4324V16.0938H88.6633V15.2976H88.5688C88.5103 15.392 88.4271 15.5112 88.3192 15.6552C88.2112 15.7969 88.0571 15.9239 87.857 16.0364C87.6568 16.1466 87.3903 16.2017 87.0574 16.2017ZM87.1654 15.4865C87.4848 15.4865 87.7546 15.4033 87.9751 15.2369C88.1955 15.0682 88.363 14.8354 88.4777 14.5385C88.5924 14.2394 88.6498 13.8942 88.6498 13.5028C88.6498 13.116 88.5935 12.7775 88.4811 12.4874C88.3686 12.195 88.2022 11.9679 87.9818 11.8059C87.7614 11.6417 87.4893 11.5597 87.1654 11.5597C86.828 11.5597 86.5469 11.6462 86.322 11.8194C86.0993 11.9904 85.9318 12.2231 85.8193 12.5178C85.7091 12.8101 85.654 13.1385 85.654 13.5028C85.654 13.8717 85.7103 14.2068 85.8227 14.5082C85.9374 14.8073 86.1061 15.0457 86.3287 15.2234C86.5537 15.3988 86.8325 15.4865 87.1654 15.4865ZM95.7781 16.2017C95.3103 16.2017 94.8999 16.0904 94.5468 15.8677C94.1959 15.6451 93.9215 15.3336 93.7236 14.9332C93.528 14.5329 93.4301 14.0651 93.4301 13.5298C93.4301 12.9901 93.528 12.5189 93.7236 12.1163C93.9215 11.7137 94.1959 11.4011 94.5468 11.1784C94.8999 10.9558 95.3103 10.8445 95.7781 10.8445C96.2459 10.8445 96.6553 10.9558 97.0061 11.1784C97.3592 11.4011 97.6336 11.7137 97.8293 12.1163C98.0272 12.5189 98.1262 12.9901 98.1262 13.5298C98.1262 14.0651 98.0272 14.5329 97.8293 14.9332C97.6336 15.3336 97.3592 15.6451 97.0061 15.8677C96.6553 16.0904 96.2459 16.2017 95.7781 16.2017ZM95.7781 15.4865C96.1335 15.4865 96.4259 15.3954 96.6553 15.2132C96.8847 15.0311 97.0545 14.7915 97.1647 14.4947C97.2749 14.1978 97.33 13.8762 97.33 13.5298C97.33 13.1835 97.2749 12.8607 97.1647 12.5616C97.0545 12.2625 96.8847 12.0207 96.6553 11.8363C96.4259 11.6519 96.1335 11.5597 95.7781 11.5597C95.4228 11.5597 95.1304 11.6519 94.901 11.8363C94.6716 12.0207 94.5018 12.2625 94.3916 12.5616C94.2814 12.8607 94.2263 13.1835 94.2263 13.5298C94.2263 13.8762 94.2814 14.1978 94.3916 14.4947C94.5018 14.7915 94.6716 15.0311 94.901 15.2132C95.1304 15.3954 95.4228 15.4865 95.7781 15.4865ZM100.138 12.9766V16.0938H99.3415V10.9119H100.111V11.7216H100.178C100.3 11.4585 100.484 11.247 100.731 11.0874C100.979 10.9254 101.298 10.8445 101.689 10.8445C102.04 10.8445 102.347 10.9164 102.61 11.0604C102.874 11.2021 103.078 11.418 103.224 11.7081C103.371 11.996 103.444 12.3603 103.444 12.8011V16.0938H102.648V12.8551C102.648 12.448 102.542 12.1309 102.33 11.9038C102.119 11.6744 101.829 11.5597 101.46 11.5597C101.206 11.5597 100.979 11.6148 100.779 11.725C100.581 11.8352 100.424 11.996 100.31 12.2074C100.195 12.4188 100.138 12.6752 100.138 12.9766ZM109.824 10.9119V11.5866H107.139V10.9119H109.824ZM107.921 9.67045H108.718V14.6094C108.718 14.8343 108.75 15.003 108.815 15.1154C108.883 15.2256 108.968 15.2998 109.072 15.3381C109.177 15.3741 109.289 15.392 109.406 15.392C109.493 15.392 109.565 15.3875 109.622 15.3786C109.678 15.3673 109.723 15.3583 109.757 15.3516L109.919 16.0668C109.865 16.087 109.789 16.1072 109.692 16.1275C109.596 16.15 109.473 16.1612 109.325 16.1612C109.1 16.1612 108.879 16.1129 108.664 16.0162C108.45 15.9194 108.272 15.7721 108.131 15.5742C107.991 15.3763 107.921 15.1267 107.921 14.8253V9.67045ZM111.929 12.9766V16.0938H111.133V9.18466H111.929V11.7216H111.997C112.118 11.454 112.3 11.2414 112.543 11.084C112.788 10.9243 113.114 10.8445 113.521 10.8445C113.875 10.8445 114.184 10.9153 114.449 11.057C114.715 11.1964 114.92 11.4112 115.067 11.7013C115.215 11.9892 115.289 12.3558 115.289 12.8011V16.0938H114.493V12.8551C114.493 12.4435 114.386 12.1253 114.173 11.9004C113.961 11.6732 113.668 11.5597 113.292 11.5597C113.031 11.5597 112.797 11.6148 112.59 11.725C112.386 11.8352 112.224 11.996 112.105 12.2074C111.988 12.4188 111.929 12.6752 111.929 12.9766ZM118.918 16.2017C118.419 16.2017 117.988 16.0915 117.626 15.8711C117.266 15.6484 116.989 15.3381 116.793 14.94C116.6 14.5397 116.503 14.0741 116.503 13.5433C116.503 13.0125 116.6 12.5447 116.793 12.1399C116.989 11.7328 117.261 11.4157 117.609 11.1886C117.96 10.9592 118.37 10.8445 118.837 10.8445C119.107 10.8445 119.374 10.8894 119.637 10.9794C119.9 11.0694 120.14 11.2156 120.356 11.418C120.571 11.6181 120.743 11.8835 120.872 12.2141C121 12.5447 121.064 12.9518 121.064 13.4354V13.7727H117.07V13.0845H120.254C120.254 12.7921 120.196 12.5312 120.079 12.3018C119.964 12.0724 119.8 11.8914 119.586 11.7587C119.375 11.626 119.125 11.5597 118.837 11.5597C118.52 11.5597 118.246 11.6384 118.014 11.7958C117.785 11.951 117.608 12.1534 117.485 12.4031C117.361 12.6527 117.299 12.9203 117.299 13.206V13.6648C117.299 14.0561 117.367 14.3878 117.501 14.66C117.639 14.9299 117.829 15.1357 118.072 15.2773C118.314 15.4168 118.597 15.4865 118.918 15.4865C119.128 15.4865 119.316 15.4573 119.485 15.3988C119.656 15.3381 119.803 15.2481 119.927 15.1289C120.051 15.0075 120.146 14.8568 120.214 14.6768L120.983 14.8928C120.902 15.1536 120.766 15.383 120.575 15.581C120.384 15.7766 120.147 15.9296 119.866 16.0398C119.585 16.1477 119.269 16.2017 118.918 16.2017Z" fill="white"/>
<path d="M47.5211 31.3438H45.8555L49.598 20.9437H51.4109L55.1535 31.3438H53.4879L50.5477 22.8328H50.4664L47.5211 31.3438ZM47.8004 27.2711H53.2035V28.5914H47.8004V27.2711ZM56.5335 34.2688V23.5437H58.0163V24.8082H58.1433C58.2313 24.6457 58.3582 24.4578 58.5241 24.2445C58.69 24.0312 58.9202 23.8451 59.2147 23.6859C59.5093 23.5234 59.8986 23.4422 60.3827 23.4422C61.0124 23.4422 61.5744 23.6013 62.0687 23.9195C62.5629 24.2378 62.9506 24.6965 63.2315 25.2957C63.5159 25.8949 63.6581 26.616 63.6581 27.459C63.6581 28.302 63.5176 29.0247 63.2366 29.6273C62.9556 30.2266 62.5697 30.6887 62.0788 31.0137C61.5879 31.3353 61.0276 31.4961 60.398 31.4961C59.924 31.4961 59.5364 31.4165 59.2351 31.2574C58.9371 31.0983 58.7035 30.9121 58.5343 30.6988C58.365 30.4855 58.2347 30.296 58.1433 30.1301H58.0519V34.2688H56.5335ZM58.0214 27.4437C58.0214 27.9922 58.1009 28.4729 58.2601 28.8859C58.4192 29.299 58.6494 29.6223 58.9507 29.8559C59.252 30.0861 59.621 30.2012 60.0577 30.2012C60.5114 30.2012 60.8905 30.081 61.1952 29.8406C61.4999 29.5969 61.7301 29.2668 61.8858 28.8504C62.045 28.434 62.1245 27.9651 62.1245 27.4437C62.1245 26.9292 62.0466 26.4671 61.8909 26.0574C61.7386 25.6478 61.5084 25.3245 61.2003 25.0875C60.8956 24.8505 60.5147 24.732 60.0577 24.732C59.6176 24.732 59.2452 24.8454 58.9405 25.0723C58.6392 25.2991 58.4107 25.6156 58.255 26.0219C58.0993 26.4281 58.0214 26.9021 58.0214 27.4437ZM65.3593 34.2688V23.5437H66.8421V24.8082H66.969C67.0571 24.6457 67.184 24.4578 67.3499 24.2445C67.5158 24.0312 67.746 23.8451 68.0405 23.6859C68.3351 23.5234 68.7244 23.4422 69.2085 23.4422C69.8382 23.4422 70.4002 23.6013 70.8944 23.9195C71.3887 24.2378 71.7763 24.6965 72.0573 25.2957C72.3417 25.8949 72.4839 26.616 72.4839 27.459C72.4839 28.302 72.3434 29.0247 72.0624 29.6273C71.7814 30.2266 71.3955 30.6887 70.9046 31.0137C70.4137 31.3353 69.8534 31.4961 69.2237 31.4961C68.7498 31.4961 68.3621 31.4165 68.0608 31.2574C67.7629 31.0983 67.5293 30.9121 67.3601 30.6988C67.1908 30.4855 67.0605 30.296 66.969 30.1301H66.8776V34.2688H65.3593ZM66.8472 27.4437C66.8472 27.9922 66.9267 28.4729 67.0858 28.8859C67.245 29.299 67.4752 29.6223 67.7765 29.8559C68.0778 30.0861 68.4468 30.2012 68.8835 30.2012C69.3371 30.2012 69.7163 30.081 70.021 29.8406C70.3257 29.5969 70.5559 29.2668 70.7116 28.8504C70.8707 28.434 70.9503 27.9651 70.9503 27.4437C70.9503 26.9292 70.8724 26.4671 70.7167 26.0574C70.5644 25.6478 70.3341 25.3245 70.0261 25.0875C69.7214 24.8505 69.3405 24.732 68.8835 24.732C68.4434 24.732 68.071 24.8454 67.7663 25.0723C67.465 25.2991 67.2365 25.6156 67.0808 26.0219C66.925 26.4281 66.8472 26.9021 66.8472 27.4437ZM83.7637 23.6758C83.7095 23.1951 83.4861 22.8227 83.0934 22.5586C82.7007 22.2911 82.2064 22.1574 81.6105 22.1574C81.184 22.1574 80.815 22.2251 80.5035 22.3605C80.1921 22.4926 79.95 22.6754 79.7773 22.909C79.6081 23.1392 79.5234 23.4016 79.5234 23.6961C79.5234 23.9432 79.581 24.1565 79.6961 24.3359C79.8146 24.5154 79.9686 24.666 80.1582 24.7879C80.3512 24.9064 80.5577 25.0062 80.7777 25.0875C80.9978 25.1654 81.2094 25.2297 81.4125 25.2805L82.4281 25.5445C82.7599 25.6258 83.1001 25.7358 83.4488 25.8746C83.7975 26.0134 84.1208 26.1962 84.4188 26.423C84.7167 26.6499 84.957 26.9309 85.1398 27.266C85.326 27.6012 85.4191 28.0023 85.4191 28.4695C85.4191 29.0586 85.2668 29.5816 84.9621 30.0387C84.6608 30.4957 84.2224 30.8562 83.6469 31.1203C83.0747 31.3844 82.3824 31.5164 81.5699 31.5164C80.7913 31.5164 80.1176 31.3928 79.5488 31.1457C78.9801 30.8986 78.5349 30.5482 78.2133 30.0945C77.8917 29.6375 77.7139 29.0958 77.6801 28.4695H79.2543C79.2848 28.8453 79.4066 29.1585 79.6199 29.409C79.8366 29.6561 80.1125 29.8406 80.4477 29.9625C80.7862 30.081 81.1569 30.1402 81.5598 30.1402C82.0033 30.1402 82.3977 30.0708 82.743 29.932C83.0917 29.7898 83.3659 29.5935 83.5656 29.343C83.7654 29.0891 83.8652 28.7928 83.8652 28.4543C83.8652 28.1462 83.7772 27.894 83.6012 27.6977C83.4285 27.5013 83.1932 27.3388 82.8953 27.2102C82.6008 27.0815 82.2673 26.9681 81.8949 26.8699L80.666 26.5348C79.8332 26.3079 79.173 25.9745 78.6855 25.5344C78.2014 25.0943 77.9594 24.512 77.9594 23.7875C77.9594 23.1883 78.1219 22.6652 78.4469 22.2184C78.7719 21.7715 79.212 21.4245 79.7672 21.1773C80.3224 20.9268 80.9487 20.8016 81.6461 20.8016C82.3503 20.8016 82.9715 20.9251 83.5098 21.1723C84.0514 21.4194 84.478 21.7596 84.7895 22.193C85.1009 22.6229 85.2634 23.1172 85.277 23.6758H83.7637ZM90.8134 23.5437V24.7625H86.5528V23.5437H90.8134ZM87.6954 21.675H89.2138V29.0535C89.2138 29.348 89.2578 29.5698 89.3458 29.7187C89.4338 29.8643 89.5472 29.9642 89.686 30.0184C89.8282 30.0691 89.9823 30.0945 90.1481 30.0945C90.27 30.0945 90.3767 30.0861 90.4681 30.0691C90.5595 30.0522 90.6306 30.0387 90.6813 30.0285L90.9556 31.2828C90.8675 31.3167 90.7423 31.3505 90.5798 31.3844C90.4173 31.4216 90.2142 31.4419 89.9704 31.4453C89.5709 31.4521 89.1985 31.381 88.8532 31.232C88.5079 31.0831 88.2286 30.8529 88.0153 30.5414C87.8021 30.2299 87.6954 29.8389 87.6954 29.3684V21.675ZM95.6947 31.5012C94.9635 31.5012 94.3253 31.3336 93.7803 30.9984C93.2352 30.6633 92.812 30.1944 92.5107 29.5918C92.2094 28.9892 92.0588 28.285 92.0588 27.4793C92.0588 26.6702 92.2094 25.9626 92.5107 25.3566C92.812 24.7507 93.2352 24.2801 93.7803 23.9449C94.3253 23.6098 94.9635 23.4422 95.6947 23.4422C96.426 23.4422 97.0641 23.6098 97.6092 23.9449C98.1542 24.2801 98.5774 24.7507 98.8787 25.3566C99.18 25.9626 99.3307 26.6702 99.3307 27.4793C99.3307 28.285 99.18 28.9892 98.8787 29.5918C98.5774 30.1944 98.1542 30.6633 97.6092 30.9984C97.0641 31.3336 96.426 31.5012 95.6947 31.5012ZM95.6998 30.2266C96.1738 30.2266 96.5665 30.1013 96.8779 29.8508C97.1894 29.6003 97.4196 29.2668 97.5686 28.8504C97.7209 28.434 97.7971 27.9753 97.7971 27.4742C97.7971 26.9766 97.7209 26.5195 97.5686 26.1031C97.4196 25.6833 97.1894 25.3465 96.8779 25.0926C96.5665 24.8387 96.1738 24.7117 95.6998 24.7117C95.2225 24.7117 94.8264 24.8387 94.5115 25.0926C94.2001 25.3465 93.9682 25.6833 93.8158 26.1031C93.6669 26.5195 93.5924 26.9766 93.5924 27.4742C93.5924 27.9753 93.6669 28.434 93.8158 28.8504C93.9682 29.2668 94.2001 29.6003 94.5115 29.8508C94.8264 30.1013 95.2225 30.2266 95.6998 30.2266ZM101.025 31.3438V23.5437H102.493V24.7828H102.574C102.717 24.363 102.967 24.0329 103.326 23.7926C103.688 23.5488 104.098 23.427 104.555 23.427C104.65 23.427 104.761 23.4303 104.89 23.4371C105.022 23.4439 105.125 23.4523 105.2 23.4625V24.9148C105.139 24.8979 105.03 24.8793 104.875 24.859C104.719 24.8353 104.563 24.8234 104.408 24.8234C104.049 24.8234 103.729 24.8996 103.448 25.052C103.17 25.2009 102.95 25.4091 102.788 25.6766C102.625 25.9406 102.544 26.2419 102.544 26.5805V31.3438H101.025ZM109.596 31.5012C108.828 31.5012 108.166 31.337 107.611 31.0086C107.059 30.6768 106.632 30.2113 106.331 29.6121C106.033 29.0095 105.884 28.3036 105.884 27.4945C105.884 26.6956 106.033 25.9914 106.331 25.382C106.632 24.7727 107.052 24.297 107.59 23.9551C108.132 23.6132 108.765 23.4422 109.489 23.4422C109.93 23.4422 110.356 23.515 110.769 23.6605C111.182 23.8061 111.553 24.0346 111.881 24.3461C112.21 24.6576 112.469 25.0621 112.658 25.5598C112.848 26.054 112.943 26.6549 112.943 27.3625V27.9008H106.742V26.7633H111.455C111.455 26.3638 111.373 26.01 111.211 25.702C111.048 25.3905 110.82 25.1451 110.525 24.9656C110.234 24.7862 109.892 24.6965 109.5 24.6965C109.073 24.6965 108.701 24.8014 108.382 25.0113C108.068 25.2178 107.824 25.4887 107.651 25.8238C107.482 26.1556 107.397 26.5161 107.397 26.9055V27.7941C107.397 28.3155 107.489 28.759 107.671 29.1246C107.858 29.4902 108.117 29.7695 108.448 29.9625C108.78 30.1521 109.168 30.2469 109.611 30.2469C109.899 30.2469 110.161 30.2062 110.398 30.125C110.635 30.0404 110.84 29.9151 111.013 29.7492C111.186 29.5833 111.318 29.3785 111.409 29.1348L112.846 29.3937C112.731 29.8169 112.524 30.1876 112.227 30.5059C111.932 30.8207 111.561 31.0661 111.114 31.2422C110.671 31.4148 110.165 31.5012 109.596 31.5012Z" fill="white"/>
<g clip-path="url(#clip0_1875_8519)">
<path d="M28.1208 9.34375H28.2908C28.4278 11.0367 27.7808 12.3007 26.9967 13.2167C26.2267 14.1267 25.1708 15.0087 23.4648 14.8748C23.3507 13.2057 23.9987 12.0347 24.7827 11.1217C25.5097 10.2697 26.8427 9.51175 28.1197 9.34375H28.1208ZM33.2847 26.9608V27.0077C32.8048 28.4597 32.1217 29.7048 31.2867 30.8598C30.5247 31.9088 29.5907 33.3197 27.9237 33.3197C26.4837 33.3197 25.5257 32.3927 24.0497 32.3678C22.4877 32.3438 21.6297 33.1437 20.2007 33.3438H19.7138C18.6658 33.1917 17.8188 32.3617 17.2028 31.6138C15.3848 29.4018 13.9798 26.5468 13.7188 22.8918V21.8177C13.8287 19.2017 15.0998 17.0747 16.7888 16.0448C17.6808 15.4968 18.9067 15.0297 20.2717 15.2378C20.8568 15.3288 21.4538 15.5287 21.9778 15.7277C22.4738 15.9177 23.0948 16.2558 23.6828 16.2378C24.0818 16.2267 24.4777 16.0187 24.8787 15.8727C26.0557 15.4477 27.2087 14.9608 28.7288 15.1898C30.5538 15.4658 31.8507 16.2767 32.6517 17.5297C31.1067 18.5127 29.8848 19.9937 30.0938 22.5247C30.2787 24.8228 31.6157 26.1678 33.2847 26.9608Z" fill="white"/>
</g>
<defs>
<clipPath id="clip0_1875_8519">
<rect width="24" height="24" fill="white" transform="translate(11.5 9.34375)"/>
</clipPath>
</defs>
</svg>
