<svg width="90" height="71" viewBox="0 0 90 71" fill="none" xmlns="http://www.w3.org/2000/svg">
<g clip-path="url(#clip0_1875_8542)">
<path d="M86.5508 1.54688H3.55078C2.44621 1.54688 1.55078 2.44231 1.55078 3.54688V57.8249C1.55078 58.9294 2.44621 59.8249 3.55078 59.8249H86.5508C87.6553 59.8249 88.5508 58.9294 88.5508 57.8249V3.54688C88.5508 2.44231 87.6553 1.54688 86.5508 1.54688Z" stroke="#393939" stroke-width="2"/>
<path d="M31.5095 60.8237H58.5965V64.7127H31.5095V60.8237ZM23.7695 66.7127C23.7695 66.1823 23.9802 65.6736 24.3553 65.2985C24.7304 64.9234 25.2391 64.7127 25.7695 64.7127H64.3345C64.865 64.7127 65.3737 64.9234 65.7487 65.2985C66.1238 65.6736 66.3345 66.1823 66.3345 66.7127V70.5457H23.7695V66.7127Z" fill="#393939"/>
</g>
<defs>
<clipPath id="clip0_1875_8542">
<rect width="89" height="70" fill="white" transform="translate(0.550781 0.546875)"/>
</clipPath>
</defs>
</svg>
