<svg width="145" height="43" viewBox="0 0 145 43" fill="none" xmlns="http://www.w3.org/2000/svg">
<path d="M1 6.34375C1 3.30618 3.46243 0.84375 6.5 0.84375H138.5C141.538 0.84375 144 3.30618 144 6.34375V36.3438C144 39.3813 141.538 41.8438 138.5 41.8438H6.5C3.46244 41.8438 1 39.3813 1 36.3438V6.34375Z" fill="black"/>
<path d="M1 6.34375C1 3.30618 3.46243 0.84375 6.5 0.84375H138.5C141.538 0.84375 144 3.30618 144 6.34375V36.3438C144 39.3813 141.538 41.8438 138.5 41.8438H6.5C3.46244 41.8438 1 39.3813 1 36.3438V6.34375Z" stroke="white"/>
<path d="M51.0597 11.3438C50.9854 11.1166 50.8876 10.9131 50.7662 10.7331C50.647 10.551 50.5041 10.3958 50.3377 10.2676C50.1735 10.1394 49.9869 10.0415 49.7777 9.97408C49.5685 9.9066 49.3391 9.87287 49.0895 9.87287C48.6802 9.87287 48.3079 9.97857 47.9728 10.19C47.6377 10.4014 47.3712 10.7129 47.1733 11.1245C46.9754 11.536 46.8764 12.041 46.8764 12.6392C46.8764 13.2375 46.9765 13.7424 47.1767 14.1539C47.3768 14.5655 47.6478 14.877 47.9897 15.0884C48.3316 15.2998 48.7161 15.4055 49.1435 15.4055C49.5393 15.4055 49.8879 15.3212 50.1893 15.1525C50.4929 14.9816 50.729 14.7409 50.8977 14.4306C51.0687 14.118 51.1541 13.7502 51.1541 13.3274L51.4105 13.3814H49.3324V12.6392H51.9638V13.3814C51.9638 13.9504 51.8423 14.4452 51.5994 14.8658C51.3588 15.2863 51.0259 15.6125 50.6009 15.8441C50.178 16.0735 49.6922 16.1882 49.1435 16.1882C48.5317 16.1882 47.9942 16.0443 47.5309 15.7564C47.0698 15.4685 46.71 15.0592 46.4513 14.5284C46.195 13.9976 46.0668 13.3679 46.0668 12.6392C46.0668 12.0927 46.1399 11.6013 46.286 11.1649C46.4345 10.7264 46.6436 10.353 46.9135 10.0449C47.1834 9.7368 47.5028 9.50065 47.8716 9.33647C48.2405 9.17229 48.6464 9.0902 49.0895 9.0902C49.4538 9.0902 49.7934 9.1453 50.1083 9.2555C50.4254 9.36346 50.7077 9.51752 50.9551 9.71768C51.2047 9.9156 51.4128 10.1529 51.5792 10.4295C51.7456 10.7039 51.8603 11.0086 51.9233 11.3438H51.0597ZM53.3967 16.0938V9.18466H57.5665V9.92685H54.2334V12.2614H57.3505V13.0036H54.2334V15.3516H57.6204V16.0938H53.3967ZM58.6966 9.92685V9.18466H63.8784V9.92685H61.7058V16.0938H60.8692V9.92685H58.6966ZM68.6782 9.18466V16.0938H67.8415V9.18466H68.6782ZM69.9778 9.92685V9.18466H75.1597V9.92685H72.9871V16.0938H72.1504V9.92685H69.9778ZM84.9523 12.6392C84.9523 13.3679 84.8208 13.9976 84.5576 14.5284C84.2945 15.0592 83.9335 15.4685 83.4747 15.7564C83.0159 16.0443 82.4919 16.1882 81.9026 16.1882C81.3134 16.1882 80.7893 16.0443 80.3305 15.7564C79.8717 15.4685 79.5107 15.0592 79.2476 14.5284C78.9845 13.9976 78.8529 13.3679 78.8529 12.6392C78.8529 11.9105 78.9845 11.2808 79.2476 10.75C79.5107 10.2192 79.8717 9.8099 80.3305 9.52202C80.7893 9.23414 81.3134 9.0902 81.9026 9.0902C82.4919 9.0902 83.0159 9.23414 83.4747 9.52202C83.9335 9.8099 84.2945 10.2192 84.5576 10.75C84.8208 11.2808 84.9523 11.9105 84.9523 12.6392ZM84.1427 12.6392C84.1427 12.041 84.0426 11.536 83.8424 11.1245C83.6445 10.7129 83.3757 10.4014 83.0361 10.19C82.6988 9.97857 82.3209 9.87287 81.9026 9.87287C81.4843 9.87287 81.1053 9.97857 80.7657 10.19C80.4284 10.4014 80.1596 10.7129 79.9594 11.1245C79.7615 11.536 79.6626 12.041 79.6626 12.6392C79.6626 13.2375 79.7615 13.7424 79.9594 14.1539C80.1596 14.5655 80.4284 14.877 80.7657 15.0884C81.1053 15.2998 81.4843 15.4055 81.9026 15.4055C82.3209 15.4055 82.6988 15.2998 83.0361 15.0884C83.3757 14.877 83.6445 14.5655 83.8424 14.1539C84.0426 13.7424 84.1427 13.2375 84.1427 12.6392ZM91.8378 9.18466V16.0938H91.0281L87.2632 10.669H87.1958V16.0938H86.3591V9.18466H87.1688L90.9472 14.6229H91.0146V9.18466H91.8378Z" fill="white"/>
<path d="M53.6809 24.2293C53.5827 23.9212 53.4507 23.6453 53.2848 23.4016C53.1223 23.1544 52.9276 22.9445 52.7008 22.7719C52.474 22.5958 52.215 22.4621 51.9238 22.3707C51.6361 22.2793 51.3195 22.2336 50.9742 22.2336C50.3885 22.2336 49.8604 22.3842 49.3898 22.6855C48.9193 22.9868 48.5469 23.4286 48.2727 24.0109C48.0018 24.5898 47.8664 25.2991 47.8664 26.1387C47.8664 26.9816 48.0035 27.6943 48.2777 28.2766C48.552 28.8589 48.9277 29.3007 49.4051 29.602C49.8824 29.9033 50.4258 30.0539 51.0352 30.0539C51.6005 30.0539 52.0931 29.9388 52.5129 29.7086C52.9361 29.4784 53.2628 29.1534 53.493 28.7336C53.7266 28.3104 53.8434 27.8128 53.8434 27.2406L54.2496 27.3168H51.2738V26.0219H55.3617V27.2051C55.3617 28.0785 55.1755 28.8368 54.8031 29.4801C54.4341 30.1199 53.9229 30.6142 53.2695 30.9629C52.6195 31.3116 51.8747 31.4859 51.0352 31.4859C50.094 31.4859 49.268 31.2693 48.557 30.8359C47.8495 30.4026 47.2977 29.7882 46.9016 28.9926C46.5055 28.1936 46.3074 27.2457 46.3074 26.1488C46.3074 25.3194 46.4225 24.5746 46.6527 23.9145C46.8829 23.2543 47.2063 22.694 47.6227 22.2336C48.0424 21.7698 48.535 21.416 49.1004 21.1723C49.6691 20.9251 50.2904 20.8016 50.9641 20.8016C51.526 20.8016 52.0491 20.8845 52.5332 21.0504C53.0207 21.2163 53.454 21.4516 53.8332 21.7562C54.2158 22.0609 54.5323 22.4232 54.7828 22.843C55.0333 23.2594 55.2026 23.7215 55.2906 24.2293H53.6809ZM60.5173 31.5012C59.786 31.5012 59.1479 31.3336 58.6028 30.9984C58.0578 30.6633 57.6346 30.1944 57.3333 29.5918C57.032 28.9892 56.8813 28.285 56.8813 27.4793C56.8813 26.6702 57.032 25.9626 57.3333 25.3566C57.6346 24.7507 58.0578 24.2801 58.6028 23.9449C59.1479 23.6098 59.786 23.4422 60.5173 23.4422C61.2485 23.4422 61.8867 23.6098 62.4317 23.9449C62.9768 24.2801 63.4 24.7507 63.7013 25.3566C64.0026 25.9626 64.1532 26.6702 64.1532 27.4793C64.1532 28.285 64.0026 28.9892 63.7013 29.5918C63.4 30.1944 62.9768 30.6633 62.4317 30.9984C61.8867 31.3336 61.2485 31.5012 60.5173 31.5012ZM60.5224 30.2266C60.9963 30.2266 61.389 30.1013 61.7005 29.8508C62.0119 29.6003 62.2422 29.2668 62.3911 28.8504C62.5435 28.434 62.6196 27.9753 62.6196 27.4742C62.6196 26.9766 62.5435 26.5195 62.3911 26.1031C62.2422 25.6833 62.0119 25.3465 61.7005 25.0926C61.389 24.8387 60.9963 24.7117 60.5224 24.7117C60.045 24.7117 59.6489 24.8387 59.3341 25.0926C59.0226 25.3465 58.7907 25.6833 58.6384 26.1031C58.4894 26.5195 58.4149 26.9766 58.4149 27.4742C58.4149 27.9753 58.4894 28.434 58.6384 28.8504C58.7907 29.2668 59.0226 29.6003 59.3341 29.8508C59.6489 30.1013 60.045 30.2266 60.5224 30.2266ZM69.1336 31.5012C68.4023 31.5012 67.7642 31.3336 67.2191 30.9984C66.6741 30.6633 66.2509 30.1944 65.9496 29.5918C65.6483 28.9892 65.4977 28.285 65.4977 27.4793C65.4977 26.6702 65.6483 25.9626 65.9496 25.3566C66.2509 24.7507 66.6741 24.2801 67.2191 23.9449C67.7642 23.6098 68.4023 23.4422 69.1336 23.4422C69.8648 23.4422 70.503 23.6098 71.048 23.9449C71.5931 24.2801 72.0163 24.7507 72.3176 25.3566C72.6189 25.9626 72.7695 26.6702 72.7695 27.4793C72.7695 28.285 72.6189 28.9892 72.3176 29.5918C72.0163 30.1944 71.5931 30.6633 71.048 30.9984C70.503 31.3336 69.8648 31.5012 69.1336 31.5012ZM69.1387 30.2266C69.6126 30.2266 70.0053 30.1013 70.3168 29.8508C70.6283 29.6003 70.8585 29.2668 71.0074 28.8504C71.1598 28.434 71.2359 27.9753 71.2359 27.4742C71.2359 26.9766 71.1598 26.5195 71.0074 26.1031C70.8585 25.6833 70.6283 25.3465 70.3168 25.0926C70.0053 24.8387 69.6126 24.7117 69.1387 24.7117C68.6613 24.7117 68.2652 24.8387 67.9504 25.0926C67.6389 25.3465 67.407 25.6833 67.2547 26.1031C67.1057 26.5195 67.0313 26.9766 67.0313 27.4742C67.0313 27.9753 67.1057 28.434 67.2547 28.8504C67.407 29.2668 67.6389 29.6003 67.9504 29.8508C68.2652 30.1013 68.6613 30.2266 69.1387 30.2266ZM77.7347 34.4313C77.1151 34.4313 76.5819 34.35 76.1351 34.1875C75.6916 34.025 75.3293 33.81 75.0483 33.5426C74.7674 33.2751 74.5575 32.9823 74.4187 32.6641L75.7237 32.1258C75.8151 32.2747 75.937 32.4322 76.0894 32.598C76.2451 32.7673 76.455 32.9112 76.719 33.0297C76.9865 33.1482 77.3301 33.2074 77.7499 33.2074C78.3254 33.2074 78.8011 33.0669 79.1769 32.7859C79.5526 32.5083 79.7405 32.0648 79.7405 31.4555V29.9219H79.644C79.5526 30.0878 79.4206 30.2723 79.248 30.4754C79.0787 30.6785 78.8451 30.8546 78.5472 31.0035C78.2493 31.1525 77.8616 31.227 77.3843 31.227C76.7681 31.227 76.2129 31.0831 75.7187 30.7953C75.2278 30.5042 74.8384 30.0759 74.5507 29.5105C74.2663 28.9418 74.1241 28.2427 74.1241 27.4133C74.1241 26.5839 74.2646 25.8729 74.5456 25.2805C74.83 24.688 75.2193 24.2344 75.7136 23.9195C76.2078 23.6013 76.7681 23.4422 77.3944 23.4422C77.8785 23.4422 78.2696 23.5234 78.5675 23.6859C78.8654 23.8451 79.0973 24.0312 79.2632 24.2445C79.4325 24.4578 79.5628 24.6457 79.6542 24.8082H79.7659V23.5437H81.2538V31.5164C81.2538 32.1867 81.0981 32.7368 80.7866 33.1668C80.4752 33.5967 80.0537 33.915 79.5222 34.1215C78.994 34.328 78.3982 34.4313 77.7347 34.4313ZM77.7194 29.9676C78.1562 29.9676 78.5252 29.866 78.8265 29.6629C79.1312 29.4564 79.3614 29.1618 79.5171 28.7793C79.6762 28.3934 79.7558 27.9312 79.7558 27.393C79.7558 26.8682 79.6779 26.4061 79.5222 26.0066C79.3664 25.6072 79.1379 25.2957 78.8366 25.0723C78.5353 24.8454 78.1629 24.732 77.7194 24.732C77.2624 24.732 76.8815 24.8505 76.5769 25.0875C76.2722 25.3211 76.042 25.6393 75.8862 26.0422C75.7339 26.4451 75.6577 26.8953 75.6577 27.393C75.6577 27.9042 75.7356 28.3527 75.8913 28.7387C76.047 29.1246 76.2772 29.4259 76.5819 29.6426C76.89 29.8592 77.2692 29.9676 77.7194 29.9676ZM84.8085 20.9437V31.3438H83.2901V20.9437H84.8085ZM90.2129 31.5012C89.4444 31.5012 88.7826 31.337 88.2273 31.0086C87.6755 30.6768 87.249 30.2113 86.9477 29.6121C86.6497 29.0095 86.5008 28.3036 86.5008 27.4945C86.5008 26.6956 86.6497 25.9914 86.9477 25.382C87.249 24.7727 87.6688 24.297 88.207 23.9551C88.7487 23.6132 89.3818 23.4422 90.1063 23.4422C90.5464 23.4422 90.9729 23.515 91.3859 23.6605C91.799 23.8061 92.1697 24.0346 92.498 24.3461C92.8264 24.6576 93.0854 25.0621 93.275 25.5598C93.4646 26.054 93.5594 26.6549 93.5594 27.3625V27.9008H87.359V26.7633H92.0715C92.0715 26.3638 91.9902 26.01 91.8277 25.702C91.6652 25.3905 91.4367 25.1451 91.1422 24.9656C90.851 24.7862 90.5091 24.6965 90.1164 24.6965C89.6898 24.6965 89.3175 24.8014 88.9992 25.0113C88.6844 25.2178 88.4406 25.4887 88.268 25.8238C88.0987 26.1556 88.0141 26.5161 88.0141 26.9055V27.7941C88.0141 28.3155 88.1055 28.759 88.2883 29.1246C88.4745 29.4902 88.7335 29.7695 89.0652 29.9625C89.397 30.1521 89.7846 30.2469 90.2281 30.2469C90.5159 30.2469 90.7783 30.2062 91.0152 30.125C91.2522 30.0404 91.457 29.9151 91.6297 29.7492C91.8023 29.5833 91.9344 29.3785 92.0258 29.1348L93.4629 29.3937C93.3478 29.8169 93.1413 30.1876 92.8434 30.5059C92.5488 30.8207 92.1781 31.0661 91.7313 31.2422C91.2878 31.4148 90.7816 31.5012 90.2129 31.5012ZM99.1504 31.3438V20.9437H102.857C103.667 20.9437 104.337 21.091 104.868 21.3855C105.4 21.6801 105.798 22.0829 106.062 22.5941C106.326 23.102 106.458 23.6741 106.458 24.3105C106.458 24.9504 106.324 25.5259 106.057 26.0371C105.793 26.5449 105.393 26.9478 104.858 27.2457C104.327 27.5402 103.658 27.6875 102.852 27.6875H100.303V26.357H102.71C103.221 26.357 103.636 26.269 103.954 26.093C104.273 25.9135 104.506 25.6698 104.655 25.3617C104.804 25.0536 104.879 24.7033 104.879 24.3105C104.879 23.9178 104.804 23.5691 104.655 23.2645C104.506 22.9598 104.271 22.7211 103.949 22.5484C103.631 22.3758 103.211 22.2895 102.69 22.2895H100.72V31.3438H99.1504ZM109.694 20.9437V31.3438H108.175V20.9437H109.694ZM114.006 31.5164C113.512 31.5164 113.065 31.425 112.666 31.2422C112.266 31.056 111.95 30.7868 111.716 30.4348C111.486 30.0827 111.371 29.651 111.371 29.1398C111.371 28.6997 111.456 28.3375 111.625 28.0531C111.794 27.7687 112.023 27.5436 112.31 27.3777C112.598 27.2118 112.92 27.0866 113.275 27.002C113.631 26.9173 113.993 26.853 114.362 26.809C114.829 26.7548 115.208 26.7108 115.499 26.677C115.791 26.6397 116.002 26.5805 116.134 26.4992C116.266 26.418 116.332 26.2859 116.332 26.1031V26.0676C116.332 25.6241 116.207 25.2805 115.956 25.0367C115.709 24.793 115.34 24.6711 114.849 24.6711C114.338 24.6711 113.935 24.7845 113.641 25.0113C113.35 25.2348 113.148 25.4836 113.037 25.7578L111.61 25.4328C111.779 24.9589 112.026 24.5763 112.351 24.2852C112.679 23.9906 113.057 23.7773 113.483 23.6453C113.91 23.5099 114.359 23.4422 114.829 23.4422C115.141 23.4422 115.471 23.4794 115.819 23.5539C116.171 23.625 116.5 23.757 116.804 23.95C117.113 24.143 117.365 24.4189 117.561 24.7777C117.757 25.1332 117.856 25.5953 117.856 26.1641V31.3438H116.373V30.2773H116.312C116.214 30.4737 116.066 30.6667 115.87 30.8562C115.674 31.0458 115.422 31.2033 115.113 31.3285C114.805 31.4538 114.436 31.5164 114.006 31.5164ZM114.337 30.2977C114.756 30.2977 115.115 30.2147 115.413 30.0488C115.714 29.8829 115.943 29.6663 116.099 29.3988C116.258 29.128 116.337 28.8385 116.337 28.5305V27.525C116.283 27.5792 116.178 27.6299 116.022 27.6773C115.87 27.7214 115.696 27.7603 115.499 27.7941C115.303 27.8246 115.112 27.8534 114.926 27.8805C114.739 27.9042 114.584 27.9245 114.458 27.9414C114.164 27.9786 113.895 28.0413 113.651 28.1293C113.411 28.2173 113.218 28.3443 113.072 28.5102C112.93 28.6727 112.859 28.8893 112.859 29.1602C112.859 29.5359 112.998 29.8203 113.275 30.0133C113.553 30.2029 113.907 30.2977 114.337 30.2977ZM120.558 34.2688C120.332 34.2688 120.125 34.2501 119.939 34.2129C119.753 34.179 119.614 34.1418 119.523 34.1012L119.888 32.857C120.166 32.9315 120.413 32.9637 120.63 32.9535C120.846 32.9434 121.038 32.8621 121.203 32.7098C121.373 32.5574 121.522 32.3086 121.65 31.9633L121.838 31.4453L118.984 23.5437H120.609L122.585 29.5969H122.666L124.641 23.5437H126.271L123.057 32.3848C122.908 32.791 122.718 33.1346 122.488 33.4156C122.258 33.7 121.984 33.9133 121.666 34.0555C121.347 34.1977 120.978 34.2688 120.558 34.2688Z" fill="white"/>
<g clip-path="url(#clip0_1875_8502)">
<mask id="mask0_1875_8502" style="mask-type:luminance" maskUnits="userSpaceOnUse" x="11" y="9" width="25" height="25">
<path d="M11.5 9.34375H35.5V33.3438H11.5V9.34375Z" fill="white"/>
</mask>
<g mask="url(#mask0_1875_8502)">
<path d="M29.425 17.5755C26.637 16.0155 22.163 13.5135 15.222 9.62552C15.008 9.4824 14.7638 9.39062 14.5085 9.35731C14.2531 9.32401 13.9936 9.35009 13.75 9.43352L25.659 21.3435L29.425 17.5755Z" fill="#32BBFF"/>
<path d="M13.7495 9.43359C13.4149 9.54542 13.1242 9.76001 12.9188 10.0468C12.7134 10.3335 12.6037 10.6778 12.6055 11.0306V31.6536C12.6034 32.0065 12.7129 32.3511 12.9183 32.6381C13.1238 32.9251 13.4147 33.1399 13.7495 33.2516L25.6575 21.3416L13.7495 9.43359ZM25.6585 21.3426L13.7495 33.2516C13.993 33.3362 14.2528 33.3628 14.5083 33.3293C14.7639 33.2958 15.0081 33.2031 15.2215 33.0586C21.9525 29.2896 26.3765 26.8156 29.1975 25.2426L29.4285 25.1126L25.6585 21.3426Z" fill="#32BBFF"/>
<path d="M12.6055 21.3423V31.6543C12.6036 32.0071 12.7132 32.3514 12.9186 32.6382C13.124 32.925 13.4149 33.1396 13.7495 33.2513L25.6575 21.3423H12.6055Z" fill="#2C9FD9"/>
<path d="M15.2211 9.62653C14.9681 9.45759 14.674 9.36053 14.3702 9.34574C14.0664 9.33094 13.7643 9.39896 13.4961 9.54253L25.4771 21.5225L29.4251 17.5755C26.6371 16.0165 22.1611 13.5145 15.2211 9.62653Z" fill="#29CC5E"/>
<path d="M25.4761 21.1616L13.4961 33.1436C13.7638 33.2883 14.0659 33.3569 14.3698 33.3421C14.6737 33.3273 14.9678 33.2296 15.2201 33.0596C21.9511 29.2906 26.3751 26.8166 29.1961 25.2436L29.4271 25.1136L25.4771 21.1636L25.4761 21.1616Z" fill="#D93F21"/>
<path d="M34.3979 21.3433C34.3994 21.0438 34.3204 20.7494 34.1691 20.491C34.0178 20.2325 33.7998 20.0195 33.5379 19.8743C33.5379 19.8743 32.4689 19.2783 29.1929 17.4463L25.2969 21.3423L29.1969 25.2423C32.4369 23.4233 33.5369 22.8103 33.5369 22.8103C34.1089 22.4903 34.3969 21.9143 34.3969 21.3423L34.3979 21.3433Z" fill="#FFD500"/>
<path d="M33.5379 22.8103C34.1089 22.4903 34.3979 21.9133 34.3979 21.3423H25.2969L29.1969 25.2423C32.4369 23.4233 33.5369 22.8103 33.5369 22.8103H33.5379Z" fill="#FFAA00"/>
</g>
</g>
<defs>
<clipPath id="clip0_1875_8502">
<rect width="24" height="24" fill="white" transform="translate(11.5 9.34375)"/>
</clipPath>
</defs>
</svg>
