<svg width="104" height="71" viewBox="0 0 104 71" fill="none" xmlns="http://www.w3.org/2000/svg">
<g clip-path="url(#clip0_1875_8536)">
<path d="M100.551 1.54688H3.55078C2.44621 1.54688 1.55078 2.44231 1.55078 3.54688V67.5469C1.55078 68.6514 2.44621 69.5469 3.55078 69.5469H100.551C101.655 69.5469 102.551 68.6514 102.551 67.5469V3.54688C102.551 2.44231 101.655 1.54688 100.551 1.54688Z" stroke="#393939" stroke-width="2"/>
<path d="M102.309 29.5469V40.7719H100.411C100.225 40.7719 100.047 40.6981 99.916 40.5668C99.7847 40.4356 99.7109 40.2575 99.7109 40.0719V30.2469C99.7109 30.0612 99.7847 29.8832 99.916 29.7519C100.047 29.6206 100.225 29.5469 100.411 29.5469H102.309Z" fill="#393939"/>
</g>
<defs>
<clipPath id="clip0_1875_8536">
<rect width="103" height="70" fill="white" transform="translate(0.550781 0.546875)"/>
</clipPath>
</defs>
</svg>
