<svg width="18" height="18" viewBox="0 0 18 18" fill="none" xmlns="http://www.w3.org/2000/svg">
<path d="M17.7179 0.11C17.933 0.271667 18.021 0.485833 17.9819 0.7525L15.4666 16.1825C15.434 16.3758 15.3297 16.5267 15.1537 16.635C15.0624 16.6883 14.9606 16.715 14.8481 16.715C14.7764 16.715 14.6982 16.6983 14.6135 16.665L10.1646 14.805L7.78615 17.77C7.66882 17.9233 7.50911 18 7.30704 18C7.22067 18 7.14815 17.9867 7.08948 17.96C6.96563 17.9133 6.86622 17.835 6.79126 17.725C6.71467 17.6133 6.67637 17.4908 6.67637 17.3575V13.8525L15.1635 3.215L4.66459 12.505L0.785259 10.8775C0.542445 10.7842 0.411259 10.6 0.391704 10.325C0.378667 10.0583 0.483778 9.86083 0.707037 9.7325L17.0481 0.09C17.1476 0.03 17.2527 0 17.3635 0C17.4939 0 17.612 0.0366667 17.7179 0.11Z" fill="#343A40"/>
</svg>
